<svg xmlns="http://www.w3.org/2000/svg" width="38" height="434" viewBox="0 0 38 434" fill="#09543D" stroke-width="0">
<g><path d="m11.25,139h15.54l4.38,45.87h-8.7l-.64-7.42h-5.55l-.53,7.42H6.83l4.43-45.87h-.01Zm9.88,31.13l-2.03-23.33h-.43l-1.71,23.33s4.17,0,4.17,0Z"/><path d="m18.99,134.54c2.62,0,4.75-2.13,4.75-4.75s-2.12-4.76-4.75-4.76-4.75,2.13-4.75,4.75,2.13,4.75,4.75,4.75h0Z"/></g>
<g><path d="m7.71,77.02h9.13v16.39h4.33v-16.39h9.13v45.87h-9.13v-20.83h-4.33v20.83H7.7s0-45.87,0-45.87Z"/><path d="m19.36,72.56c2.62,0,4.75-2.13,4.75-4.75s-2.12-4.76-4.75-4.76-4.75,2.13-4.75,4.75,2.13,4.75,4.75,4.75h0Z"/></g>
<g><path d="m7.84,15.05h12.12c7.64,0,10.2,5.29,10.2,13.94s-1.98,13.78-9.56,13.78h-3.74v18.16H7.84V15.05h0Zm9.56,19.44c3.36,0,3.68-1.92,3.68-5.66,0-3.47-.43-5.45-3.2-5.45h-1.01v11.11h.53Z"/><path d="m18.97,10.59c2.62,0,4.75-2.13,4.75-4.75s-2.12-4.76-4.75-4.76-4.75,2.13-4.75,4.75,2.13,4.75,4.75,4.75h0Z"/></g>
<g><path d="m1.12,200.97h13.99l3.84,27.98,3.84-27.98h14.1v45.87h-8.38v-33.05l-5.29,33.05h-8.22l-5.61-33.05v33.05H1.11v-45.87h.01Z"/><path d="m19.01,196.51c2.62,0,4.75-2.13,4.75-4.75s-2.13-4.76-4.75-4.76-4.75,2.13-4.75,4.75,2.13,4.75,4.75,4.75h0Z"/></g>
<g><path d="m14.57,263.02h8.86v45.87h-8.86v-45.87Z"/><path d="m19,258.39c2.62,0,4.75-2.13,4.75-4.75s-2.13-4.75-4.75-4.75-4.75,2.13-4.75,4.75,2.13,4.75,4.75,4.75Z"/></g>
<g><path d="m9.68,325h9.19v38.07h9.45v7.8H9.68v-45.87Z"/><path d="m14.43,320.37c2.62,0,4.75-2.13,4.75-4.75s-2.13-4.75-4.75-4.75-4.75,2.13-4.75,4.75,2.13,4.75,4.75,4.75Z"/></g>
<g><path d="m14.68,417.73l-7.32-30.76h9.08l2.56,15.54,2.56-15.54h9.08l-7.32,30.76v15.11h-8.65v-15.11h.01Z"/><path d="m19.01,382.34c2.62,0,4.75-2.13,4.75-4.75s-2.13-4.75-4.75-4.75-4.75,2.13-4.75,4.75,2.13,4.75,4.75,4.75Z"/></g>
</svg>
