<svg width="467" height="421" viewBox="0 0 467 421" fill="none" xmlns="http://www.w3.org/2000/svg">
<g clip-path="url(#clip0_4775_11180)">
<path d="M455.784 199.327C465.838 213.597 468.973 234.245 465.622 258.029C465.622 258.245 465.622 258.57 465.514 258.786C465.514 259.11 465.406 259.543 465.406 260.083C464 268.516 461.946 277.272 459.135 286.353C455.46 297.272 450.811 308.623 444.973 319.867C440.865 327.542 436.325 335.218 431.244 342.785C426.163 350.353 420.433 357.596 414.811 364.191C414.811 364.515 414.487 364.623 414.379 364.731C414.163 365.056 413.838 365.38 413.622 365.596C407.352 373.056 400.757 379.866 393.838 385.704C386.163 392.515 378.487 398.461 370.595 403.326H370.379C369.406 403.974 368.541 404.515 367.676 405.055L366.812 405.488H366.595C339.028 421.812 311.677 425.488 292.65 412.623C269.839 397.164 264.65 362.029 275.569 321.921C273.19 320.191 270.704 318.353 268.217 316.732C249.082 303.867 230.704 293.597 213.407 286.353C192.326 295.975 189.299 286.57 164.758 283.326C152.002 281.597 150.272 267.759 142.38 268.624C130.921 269.921 117.299 264.516 73.9481 278.678C62.5968 282.245 30.3807 285.921 20.6511 278.894C11.57 272.299 4.32681 264.624 4.1106 253.705C4.1106 243.651 14.9214 238.137 23.6781 234.894C40.9753 228.732 82.1643 223.975 105.732 210.678C100.543 201.489 95.7858 204.192 81.6237 186.678C76.867 178.246 58.5968 162.246 76.2184 140.624C95.3534 128.084 93.6237 119.868 96.975 107.111C106.056 82.2462 134.488 74.5705 145.407 78.5705C165.191 78.3543 189.299 96.9488 200.65 124.732C193.623 110.354 196.542 100.3 196.65 83.0029C196.65 68.6246 194.921 35.868 208.65 29.5978C214.92 26.6789 235.893 7.32762 241.623 7.0033C253.299 6.35465 265.623 25.814 269.623 37.5977C274.812 53.0571 257.623 61.3814 266.596 77.1651C271.785 86.2462 267.136 116.516 272.758 141.273C278.92 146.678 316.65 171.975 350.812 199.975C352.649 201.489 354.487 203.002 356.433 204.624C360.217 201.705 364.109 199.002 368.001 196.732C368.974 196.083 370.055 195.543 371.028 194.894C371.568 194.57 372.217 194.138 372.758 193.921C386.487 186.138 399.893 181.705 412.217 180.624C424.217 179.543 435.46 181.813 444.649 187.975C449.081 191.002 452.757 194.786 456 199.327H455.784Z" fill="#FFFDF7"/>
<path d="M465.514 258.029C465.514 258.029 465.514 258.57 465.406 258.786C465.406 259.11 465.298 259.543 465.298 260.083C463.893 268.516 461.839 277.272 459.028 286.353C455.352 297.272 450.703 308.624 444.866 319.867C440.758 327.542 436.217 335.218 431.136 342.786C426.055 350.353 420.325 357.596 414.704 364.191C414.704 364.515 414.379 364.623 414.271 364.731C414.055 365.056 413.731 365.38 413.514 365.596C407.244 373.056 400.65 379.866 393.731 385.704C386.055 392.515 378.379 398.461 370.488 403.326H370.271C369.298 403.974 368.434 404.515 367.569 405.055L366.704 405.488H366.488C338.92 421.812 311.569 425.488 292.542 412.623C269.731 397.164 264.542 362.029 275.461 321.921C276.11 320.191 276.542 318.461 277.083 316.623C313.191 342.137 345.947 373.921 363.461 401.056H363.677C371.461 395.974 379.244 390.029 386.92 383.326C393.839 377.38 400.433 370.677 406.704 363.326C406.704 363.326 407.244 362.677 407.46 362.353C407.568 362.137 407.785 362.029 407.893 361.812C413.514 355.326 419.136 348.083 424.325 340.407C429.406 332.84 433.947 325.164 438.055 317.488C444.001 306.245 448.649 295.002 452.217 283.975C423.785 265.38 385.298 235.543 351.677 208.083C352.326 207.543 352.974 207.002 353.515 206.462C354.271 205.813 355.136 205.165 356.001 204.624C359.785 201.705 363.677 199.002 367.569 196.732C368.542 196.083 369.623 195.543 370.596 194.894C371.136 194.57 371.785 194.138 372.325 193.921C386.055 186.138 399.46 181.705 411.785 180.624C423.785 179.543 435.028 181.813 444.217 187.975C448.649 191.002 452.325 194.786 455.568 199.327C465.622 213.597 468.757 234.245 465.406 258.029H465.514Z" fill="#1E1E1E"/>
<path d="M213.407 286.355C230.596 293.598 249.083 303.868 268.218 316.733C270.704 318.463 273.191 320.192 275.569 321.922C310.488 346.895 342.055 377.598 359.136 403.976C360.65 406.03 364.217 406.678 366.596 405.597H366.812C366.812 405.597 367.352 405.273 367.677 405.057C375.244 400.3 382.596 394.462 390.596 387.435C397.406 381.597 404.217 374.679 411.028 366.895C411.028 366.787 411.136 366.679 411.136 366.679C411.46 366.354 412.001 365.706 412.001 365.706L412.433 365.165C418.595 358.03 424.109 350.679 428.974 343.435C433.839 336.192 438.487 328.517 443.028 319.976C448.649 309.273 453.514 297.814 457.622 285.706C458.379 283.22 457.514 280.733 455.46 279.328C425.514 259.76 385.947 228.625 356.217 204.517C354.271 202.896 352.325 201.49 350.596 199.869C316.434 171.869 287.569 147.22 281.407 141.707C280.65 141.058 280.218 140.626 280.218 140.626C277.947 138.68 274.488 138.896 272.542 141.166C271.569 142.355 271.137 143.761 271.245 145.274C271.245 145.382 271.245 145.599 271.245 145.707C271.461 146.896 272.001 147.977 272.974 148.842C273.083 148.842 276.974 152.301 283.785 158.031C296.326 168.734 318.596 187.544 343.785 208.085C373.19 232.193 414.163 264.625 446.055 286.03C442.487 296.084 438.379 305.814 433.514 314.787C429.19 323.003 424.758 330.354 420.001 337.273C415.352 344.3 410.055 351.219 404.001 358.03C404.001 358.138 403.677 358.354 403.677 358.462C403.568 358.679 403.244 358.895 403.136 359.219C402.812 359.544 402.595 359.76 402.379 360.084C396.109 367.219 389.731 373.814 383.352 379.219C376.974 384.949 370.812 389.597 365.082 393.597C345.515 365.381 311.245 332.949 274.164 307.868C253.623 293.814 242.596 286.787 224.002 279.22C222.596 278.679 213.299 286.355 213.299 286.355H213.407Z" fill="#1E1E1E"/>
<path d="M188.435 246.029C186.921 246.029 185.408 245.272 184.435 243.867C147.246 196.191 201.408 149.165 201.948 148.732C204.218 146.786 207.678 147.003 209.624 149.273C211.57 151.543 211.354 155.002 209.083 156.948C207.137 158.57 162.381 197.705 193.083 237.164C194.921 239.543 194.597 243.002 192.11 244.732C191.137 245.597 189.732 245.921 188.651 245.921H188.543L188.435 246.029Z" fill="#1E1E1E"/>
<path d="M253.406 2.14016C265.623 5.70771 273.082 17.8158 270.812 30.3562C266.488 53.7075 261.19 97.8154 274.812 131.221C281.082 146.572 282.487 163.761 278.812 181.166L277.839 185.058C277.082 187.977 274.271 189.707 271.244 188.95C268.217 188.193 266.596 185.383 267.352 182.356C267.785 180.734 268.109 179.22 268.325 177.599C271.244 162.68 269.947 148.302 264.758 135.221C249.947 99.2208 255.569 52.8426 260.109 28.3022C261.515 21.3833 257.298 14.5725 250.379 12.5185C235.353 8.08607 218.92 15.005 212.326 28.8427C199.893 54.4642 200.326 84.0857 201.515 99.437C202.163 105.923 202.812 109.815 202.812 109.923C203.353 112.842 201.515 115.761 198.596 116.302C195.677 116.842 192.866 114.896 192.218 111.977C192.218 111.545 191.677 108.518 191.137 103.545C190.704 100.194 190.38 96.0857 190.272 91.3289C189.623 73.7074 191.245 47.6535 202.704 24.086C211.569 5.70771 233.515 -3.80576 253.515 2.14016H253.406Z" fill="#1E1E1E"/>
<path d="M241.191 273.057C241.407 274.571 240.975 276.192 239.785 277.381C199.137 322.138 143.57 276.733 143.137 276.3C140.867 274.462 140.543 271.003 142.381 268.625C144.218 266.354 147.678 266.03 150.056 267.868C152.002 269.49 198.164 307.003 231.894 270.03C233.948 267.76 237.407 267.544 239.461 269.706C240.434 270.571 241.083 271.76 241.191 272.949H241.299L241.191 273.057Z" fill="#1E1E1E"/>
<path d="M163.029 276.624C145.84 265.273 144.975 263.435 131.678 263.867C116.11 263.867 74.489 271.651 42.5973 278.354C34.273 279.975 25.5163 277.597 19.138 271.867C13.3001 266.678 10.2731 259.327 11.0299 251.435C11.5704 246.678 15.2461 242.57 20.1109 241.489C36.0027 237.597 85.0836 224.3 111.029 216.3C109.84 212.516 101.408 208.624 95.2457 209.705C69.7323 217.273 28.9757 228.192 17.4082 230.895C8.4353 233.273 1.19209 240.949 0.111015 250.894C-0.753846 261.705 3.46235 272.3 11.7866 279.759C20.6515 287.759 32.9757 291.11 44.6513 288.84C89.2998 279.543 120.11 274.462 131.678 274.462C139.57 274.462 142.164 275.543 159.462 286.57C183.462 292.516 191.029 295.002 163.029 276.408V276.624Z" fill="#1E1E1E"/>
<path d="M151.894 74.3558C157.191 75.9774 166.056 81.7071 177.191 89.1665C180.326 91.3287 183.353 93.3827 185.407 94.5719C204.434 106.248 212.65 129.166 205.84 149.923L204.759 153.166C199.029 167.112 192.867 175.869 186.164 179.977C183.353 181.599 180.11 180.734 178.597 178.031C177.083 175.436 177.84 172.193 180.542 170.68C181.191 170.355 182.056 169.707 183.029 168.734C185.84 165.923 190.056 160.409 194.705 149.058C201.515 132.41 195.245 113.275 179.894 103.653C177.624 102.356 174.597 100.193 171.245 98.0313C163.894 93.2746 152.975 85.9233 148.759 84.626C128.651 78.572 107.678 88.5179 100.759 107.22C98.4888 113.166 98.8131 117.166 99.2456 119.004C99.4618 119.869 99.678 120.41 99.678 120.41C100.867 123.112 99.7861 126.247 97.1915 127.653C94.4888 128.95 91.4618 127.869 90.0564 125.274C90.0564 125.274 89.7321 124.626 89.4078 123.761C88.4348 120.95 86.9213 113.815 90.4888 103.437C95.5699 89.4908 106.705 79.4368 120.002 74.7882C123.462 73.4909 127.137 72.7342 130.921 72.3017C137.732 71.4369 144.867 72.0855 151.786 74.1396L151.894 74.3558Z" fill="#1E1E1E"/>
<path d="M179.029 180.083C167.678 184.948 95.1373 134.029 95.1373 134.029C92.7589 132.3 92.2184 128.84 94.1643 126.462C95.8941 123.975 99.3535 123.543 101.732 125.489C101.732 125.489 172.11 175.867 180.542 170.786C188.975 165.705 184.542 177.705 179.029 180.083Z" fill="#1E1E1E"/>
<path d="M113.624 211.868C113.948 214.571 112.327 217.057 109.624 217.706L79.1376 225.814C76.3268 226.571 73.2998 224.949 72.5431 221.922C71.6782 219.003 73.4079 216.084 76.4349 215.327L106.921 207.219C109.732 206.463 112.759 208.084 113.516 211.111V211.868H113.624Z" fill="#1E1E1E"/>
<path d="M107.03 130.247C96.7598 132.193 87.6788 135.977 79.5707 141.274C73.4086 145.382 70.9221 152.842 73.6248 159.004C76.7599 166.139 80.4356 172.841 84.868 179.22C90.1653 186.895 96.2193 194.139 103.03 200.625C103.03 200.625 103.03 200.625 103.138 200.625C103.246 200.625 103.246 200.841 103.246 200.841C107.571 204.949 112.111 208.733 116.976 212.301C127.895 220.409 148.111 223.003 160.976 218.03C169.192 214.787 172.976 211.328 174.705 208.949C175.678 207.652 176.111 206.679 176.327 206.139C176.759 205.058 178.057 203.436 179.138 202.895C180.651 202.139 181.84 216.301 180.003 218.03C176.868 220.949 172.111 224.193 164.759 227.003C148.435 233.382 124.111 230.355 110.273 220.084C105.841 216.733 101.733 213.49 97.7328 209.706C95.1382 207.436 92.6517 204.841 90.1653 202.247C85.841 197.706 81.841 192.841 78.2734 187.977C76.2194 185.274 74.3815 182.463 72.5437 179.544C70.1654 175.652 68.0032 171.76 66.0573 167.544C65.1924 165.923 64.4357 164.301 63.6789 162.571C63.1384 161.058 62.7059 159.652 62.2735 158.139C60.3276 148.95 64.5438 138.788 73.3005 132.95C81.0842 127.761 90.0571 122.571 99.4625 120.193C100.219 124.842 108.327 129.598 106.706 129.923L107.03 130.247Z" fill="#1E1E1E"/>
</g>
<defs>
<clipPath id="clip0_4775_11180">
<rect width="466.914" height="420" fill="white" transform="translate(0 0.374268)"/>
</clipPath>
</defs>
</svg>
